<?xml version="1.0" encoding="utf-8"?>
<!-- Generator: Adobe Illustrator 15.0.0, SVG Export Plug-In . SVG Version: 6.00 Build 0)  -->
<!DOCTYPE svg PUBLIC "-//W3C//DTD SVG 1.1//EN" "http://www.w3.org/Graphics/SVG/1.1/DTD/svg11.dtd">
<svg version="1.1" id="Layer_1" xmlns="http://www.w3.org/2000/svg" xmlns:xlink="http://www.w3.org/1999/xlink" x="0px" y="0px"
	 width="647px" height="279px" viewBox="0 0 647 279" enable-background="new 0 0 647 279" xml:space="preserve">
<g>
	<defs>
		<rect id="SVGID_1_" x="-50" y="-49.298" width="748.179" height="378.298"/>
	</defs>
	<clipPath id="SVGID_2_">
		<use xlink:href="#SVGID_1_"  overflow="visible"/>
	</clipPath>
	<path clip-path="url(#SVGID_2_)" fill="#DBDFE1" d="M68.498,125.195L54.303,111l8.492-8.495l2.531,2.531l-5.964,5.963
		l11.666,11.666L68.498,125.195z M72.131,116.501l6.509-6.509L66.975,98.328l2.531-2.53L83.7,109.993l-9.038,9.039L72.131,116.501z
		 M180.315,116.679l-8.953,8.954l-29.821-29.821c-1.378-1.379-3.211-2.138-5.158-2.138h-0.002c-1.947,0-3.779,0.759-5.157,2.136
		c-2.844,2.845-2.844,7.474-0.001,10.319l12.847,12.846c11.323,11.323,11.324,29.748,0.001,41.071
		c-5.66,5.661-13.098,8.492-20.534,8.493c-7.438,0-14.876-2.831-20.538-8.493l-1.265-1.267l8.955-8.953l1.265,1.266
		c3.093,3.094,7.206,4.797,11.582,4.797c4.374,0,8.487-1.703,11.581-4.797c6.385-6.387,6.385-16.776-0.001-23.163l-12.847-12.847
		c-7.78-7.782-7.78-20.444,0-28.224c7.356-7.356,19.069-7.757,26.905-1.21l3.905-3.906c-9.996-8.691-25.203-8.28-34.703,1.222
		c-4.809,4.809-7.458,11.204-7.458,18.004c0,6.803,2.649,13.197,7.458,18.007l12.847,12.848c4.24,4.237,4.24,11.136,0.001,15.376
		c-2.054,2.055-4.784,3.185-7.688,3.185c-2.906,0-5.636-1.132-7.689-3.187l-27.291-27.291l-3.893,3.894l22.132,22.133l-8.954,8.953
		l-18.055-18.056l2.53-2.53l15.525,15.525l3.894-3.893l-22.133-22.133l8.954-8.954l29.821,29.821
		c1.378,1.378,3.21,2.138,5.159,2.138c1.949,0,3.78-0.76,5.158-2.137c2.844-2.846,2.844-7.473-0.001-10.317l-12.847-12.846
		c-5.486-5.486-8.507-12.779-8.507-20.538c0-7.756,3.021-15.049,8.507-20.535s12.778-8.506,20.537-8.506
		c7.757,0,15.05,3.02,20.535,8.506l1.265,1.265l-8.953,8.954l-1.266-1.265c-6.386-6.385-16.778-6.384-23.165,0.001
		c-6.384,6.386-6.384,16.778,0,23.164l12.847,12.847c7.782,7.781,7.782,20.442,0.002,28.224c-3.77,3.77-8.782,5.845-14.112,5.845
		c-4.731,0-9.209-1.634-12.791-4.634l-3.906,3.902c9.991,8.689,25.198,8.283,34.702-1.22c9.928-9.928,9.926-26.083-0.001-36.01
		l-12.847-12.847c-4.239-4.241-4.238-11.14,0.001-15.379c4.239-4.239,11.138-4.238,15.377,0.001l27.291,27.291l3.892-3.893
		l-22.132-22.132l8.955-8.954l19.835,19.835l-2.53,2.53l-17.305-17.305l-3.895,3.894L180.315,116.679z"/>
	<path clip-path="url(#SVGID_2_)" fill="#DBDFE1" d="M118.107,266.851l-99.471-62.743L13.75,23.857l6.258-0.945
		c2.717-0.412,66.889-10.061,98.099-10.061s95.382,9.649,98.099,10.061l6.258,0.945l-4.886,180.25L118.107,266.851z M32.745,196.074
		l85.363,53.847l85.363-53.847l4.335-159.917c-17.128-2.452-65.093-8.986-89.698-8.986s-72.57,6.534-89.698,8.986L32.745,196.074z"
		/>
	<path clip-path="url(#SVGID_2_)" fill="#DBDFE1" d="M263.603,104.211c0,1.623-1.353,3.066-3.066,3.066
		c-1.715,0-3.068-1.443-3.068-3.066V48.196c0-1.624,1.353-3.068,3.068-3.068c1.713,0,3.066,1.444,3.066,3.068V104.211z"/>
	<path clip-path="url(#SVGID_2_)" fill="#DBDFE1" d="M301.939,95.01l-18.852-35.088v44.379c0,1.624-1.352,2.976-2.976,2.976
		s-2.977-1.352-2.977-2.976V48.105c0-1.623,1.353-2.977,2.977-2.977c1.353,0,2.255,0.812,2.706,1.715l21.829,40.861l21.918-40.861
		c0.361-0.631,1.082-1.715,2.705-1.715c1.624,0,2.979,1.354,2.979,2.977v56.196c0,1.624-1.354,2.976-2.979,2.976
		c-1.623,0-2.976-1.352-2.976-2.976V59.922L307.351,95.01c-0.631,1.172-1.623,1.713-2.705,1.713
		C303.744,96.723,302.57,96.273,301.939,95.01"/>
	<path clip-path="url(#SVGID_2_)" fill="#DBDFE1" d="M370.584,95.01l-18.853-35.088v44.379c0,1.624-1.352,2.976-2.976,2.976
		s-2.978-1.352-2.978-2.976V48.105c0-1.623,1.354-2.977,2.978-2.977c1.353,0,2.255,0.812,2.706,1.715l21.829,40.861l21.919-40.861
		c0.36-0.631,1.082-1.715,2.705-1.715c1.624,0,2.978,1.354,2.978,2.977v56.196c0,1.624-1.354,2.976-2.978,2.976
		c-1.623,0-2.977-1.352-2.977-2.976V59.922L375.996,95.01c-0.632,1.172-1.623,1.713-2.705,1.713
		C372.389,96.723,371.217,96.273,370.584,95.01"/>
	<path clip-path="url(#SVGID_2_)" fill="#DBDFE1" d="M415.324,87.523V48.11c0-1.714,1.353-3.068,3.067-3.068
		c1.713,0,3.066,1.354,3.066,3.068v39.413c0,7.126,2.616,13.981,15.063,13.981c12.357,0,14.975-6.855,14.975-13.981V48.11
		c0-1.714,1.352-3.068,3.065-3.068s3.067,1.354,3.067,3.068v39.413c0,9.923-4.059,19.754-21.107,19.754
		C419.474,107.277,415.324,97.446,415.324,87.523"/>
	<path clip-path="url(#SVGID_2_)" fill="#DBDFE1" d="M514.007,48.105v56.106c0,1.713-1.354,3.066-3.068,3.066
		c-1.082,0-1.893-0.451-2.524-1.263l-31.751-47.896v46.183c0,1.623-1.354,2.976-2.977,2.976c-1.625,0-2.977-1.353-2.977-2.976
		V48.105c0-1.623,1.352-2.977,2.977-2.977c1.082,0,1.984,0.631,2.436,1.264l31.932,47.986V48.105c0-1.623,1.353-2.977,2.977-2.977
		C512.653,45.128,514.007,46.482,514.007,48.105"/>
	<path clip-path="url(#SVGID_2_)" fill="#DBDFE1" d="M533.672,104.211c0,1.623-1.354,3.066-3.066,3.066
		c-1.715,0-3.068-1.443-3.068-3.066V48.196c0-1.624,1.354-3.068,3.068-3.068c1.713,0,3.066,1.444,3.066,3.068V104.211z"/>
	<path clip-path="url(#SVGID_2_)" fill="#DBDFE1" d="M545.938,50.799c-1.623,0-2.887-1.263-2.887-2.886
		c0-1.623,1.264-2.887,2.887-2.887h38.336c1.623,0,2.887,1.264,2.887,2.887c0,1.623-1.264,2.886-2.887,2.886h-16.056v53.412
		c0,1.714-1.354,3.066-3.068,3.066c-1.713,0-3.065-1.352-3.065-3.066V50.799H545.938z"/>
	<path clip-path="url(#SVGID_2_)" fill="#DBDFE1" d="M609.714,104.211V78.322l-18.132-28.503c-0.271-0.451-0.451-0.992-0.451-1.623
		c0-1.714,1.355-3.068,3.068-3.068c1.082,0,2.073,0.541,2.614,1.444l15.967,25.617l15.966-25.617
		c0.541-0.903,1.533-1.444,2.615-1.444c1.715,0,3.067,1.354,3.067,3.068c0,0.631-0.181,1.172-0.451,1.623l-18.13,28.503v25.889
		c0,1.713-1.354,3.066-3.067,3.066C611.066,107.277,609.714,105.924,609.714,104.211"/>
	<path clip-path="url(#SVGID_2_)" fill="#DBDFE1" d="M275.6,134.308c-9.47,0-13.079,4.691-13.079,9.833
		c0,14.974,34.096,8.568,34.096,30.308c0,11.275-7.756,17.499-21.648,17.499c-10.282,0-17.95-5.232-21.016-11.095
		c-0.361-0.723-0.451-1.082-0.451-1.623c0-1.624,1.262-2.886,2.886-2.886c1.082,0,1.984,0.541,2.525,1.442
		c2.887,4.69,8.119,8.568,16.056,8.568c9.922,0,15.515-3.968,15.515-11.906c0-16.868-34.096-8.93-34.096-30.308
		c0-8.298,6.043-15.425,19.212-15.425c8.57,0,15.515,3.609,19.304,9.292c0.361,0.541,0.541,1.082,0.541,1.713
		c0,1.624-1.262,2.887-2.887,2.887c-0.812,0-1.623-0.271-2.345-1.173C287.505,138.097,283.177,134.308,275.6,134.308"/>
	<path clip-path="url(#SVGID_2_)" fill="#DBDFE1" d="M320.884,188.881v-25.889l-18.132-28.503c-0.27-0.451-0.451-0.992-0.451-1.623
		c0-1.714,1.355-3.068,3.068-3.068c1.082,0,2.074,0.541,2.615,1.444l15.966,25.617l15.966-25.617
		c0.541-0.903,1.532-1.444,2.614-1.444c1.716,0,3.068,1.354,3.068,3.068c0,0.631-0.181,1.172-0.451,1.623l-18.13,28.503v25.889
		c0,1.713-1.355,3.066-3.068,3.066C322.237,191.947,320.884,190.594,320.884,188.881"/>
	<path clip-path="url(#SVGID_2_)" fill="#DBDFE1" d="M371.305,134.308c-9.47,0-13.078,4.691-13.078,9.833
		c0,14.974,34.096,8.568,34.096,30.308c0,11.275-7.756,17.499-21.648,17.499c-10.281,0-17.95-5.232-21.016-11.095
		c-0.361-0.723-0.451-1.082-0.451-1.623c0-1.624,1.262-2.886,2.886-2.886c1.082,0,1.984,0.541,2.525,1.442
		c2.887,4.69,8.119,8.568,16.056,8.568c9.922,0,15.516-3.968,15.516-11.906c0-16.868-34.097-8.93-34.097-30.308
		c0-8.298,6.043-15.425,19.212-15.425c8.57,0,15.516,3.609,19.305,9.292c0.36,0.541,0.541,1.082,0.541,1.713
		c0,1.624-1.263,2.887-2.888,2.887c-0.812,0-1.623-0.271-2.345-1.173C383.211,138.097,378.883,134.308,371.305,134.308"/>
	<path clip-path="url(#SVGID_2_)" fill="#DBDFE1" d="M398.64,135.498c-1.623,0-2.888-1.262-2.888-2.886
		c0-1.623,1.265-2.887,2.888-2.887h38.336c1.623,0,2.886,1.264,2.886,2.887c0,1.624-1.263,2.886-2.886,2.886h-16.057v53.383
		c0,1.713-1.353,3.066-3.067,3.066c-1.713,0-3.066-1.354-3.066-3.066v-53.383H398.64z"/>
	<path clip-path="url(#SVGID_2_)" fill="#DBDFE1" d="M452.4,191.947c-1.715,0-3.068-1.354-3.068-3.068v-56.014
		c0-1.713,1.354-3.067,3.068-3.067h28.955c1.533,0,2.795,1.264,2.795,2.797c0,1.533-1.262,2.795-2.795,2.795h-25.89v23.182h19.846
		c1.533,0,2.796,1.263,2.796,2.797c0,1.533-1.263,2.796-2.796,2.796h-19.846v22.188h26.882c1.532,0,2.795,1.264,2.795,2.798
		c0,1.532-1.263,2.796-2.795,2.796H452.4z"/>
	<path clip-path="url(#SVGID_2_)" fill="#DBDFE1" d="M519.96,179.68l-18.852-35.088v44.379c0,1.624-1.353,2.976-2.977,2.976
		s-2.977-1.352-2.977-2.976v-56.196c0-1.623,1.353-2.977,2.977-2.977c1.354,0,2.255,0.812,2.706,1.715l21.829,40.861l21.919-40.861
		c0.361-0.631,1.082-1.715,2.705-1.715c1.624,0,2.979,1.354,2.979,2.977v56.196c0,1.624-1.354,2.976-2.979,2.976
		c-1.623,0-2.976-1.352-2.976-2.976v-44.379l-18.943,35.088c-0.631,1.172-1.623,1.713-2.705,1.713
		C521.765,181.393,520.593,180.942,519.96,179.68"/>
	<path clip-path="url(#SVGID_2_)" fill="#DBDFE1" d="M582.832,134.308c-9.47,0-13.079,4.691-13.079,9.833
		c0,14.974,34.096,8.568,34.096,30.308c0,11.275-7.756,17.499-21.647,17.499c-10.282,0-17.95-5.232-21.017-11.095
		c-0.36-0.723-0.45-1.082-0.45-1.623c0-1.624,1.262-2.886,2.886-2.886c1.082,0,1.983,0.541,2.524,1.442
		c2.888,4.69,8.119,8.568,16.057,8.568c9.922,0,15.515-3.968,15.515-11.906c0-16.868-34.096-8.93-34.096-30.308
		c0-8.298,6.043-15.425,19.212-15.425c8.57,0,15.515,3.609,19.304,9.292c0.361,0.541,0.541,1.082,0.541,1.713
		c0,1.624-1.262,2.887-2.887,2.887c-0.813,0-1.623-0.271-2.345-1.173C594.738,138.097,590.41,134.308,582.832,134.308"/>
</g>
</svg>
